<svg xmlns="http://www.w3.org/2000/svg" width="486" height="478" viewBox="0 0 486 478" version="1.1"><path d="M 236 40.568 C 229.125 41.308, 221.700 42.366, 219.500 42.918 C 217.300 43.471, 213.925 44.210, 212 44.560 C 205.783 45.693, 186.499 51.894, 179 55.172 C 168.654 59.694, 155.875 66.595, 146.500 72.721 C 141 76.316, 136.275 79.537, 136 79.881 C 135.725 80.224, 132.814 82.529, 129.530 85.003 C 113.293 97.235, 90.013 123.598, 78.697 142.566 C 75.653 147.670, 67.988 163.303, 65.002 170.500 C 59.160 184.580, 54.848 203.139, 51.993 226.500 C 50.767 236.527, 50.765 262.383, 51.989 271 C 54.338 287.540, 55.023 291.740, 55.907 295 C 56.430 296.925, 57.637 301.650, 58.591 305.500 C 63.625 325.824, 77.438 354.963, 89.878 371.500 C 116.097 406.355, 147.654 431.355, 182 444.482 C 187.225 446.479, 192.499 448.522, 193.720 449.021 C 201.968 452.396, 223.831 456.694, 240.206 458.159 C 251.221 459.145, 257.116 459.142, 269.225 458.145 C 290.823 456.368, 303.133 453.752, 322.500 446.823 C 358.212 434.047, 388.662 412.743, 413.013 383.500 C 439.600 351.570, 455.379 312.881, 460.117 268 C 462.246 247.830, 459.795 216.689, 454.488 196.500 C 453.621 193.200, 452.546 189.117, 452.101 187.426 C 450.503 181.367, 442.639 161.359, 438.964 154 C 434.510 145.085, 422.877 127.238, 415.538 118.064 C 407.558 108.089, 389.128 90.375, 379.576 83.500 C 378.048 82.400, 374.793 79.998, 372.343 78.162 C 361.259 69.855, 335.358 56.017, 322.500 51.532 C 319.750 50.573, 316.600 49.394, 315.500 48.912 C 314.400 48.430, 311.700 47.605, 309.500 47.078 C 307.300 46.552, 303.475 45.630, 301 45.030 C 290.712 42.537, 286.753 41.927, 271.589 40.499 C 253.259 38.772, 252.674 38.773, 236 40.568 M 243 67.060 C 231.909 67.861, 218.822 70.126, 210.500 72.686 C 176.979 82.995, 158.055 93.774, 135.021 115.675 C 101.949 147.121, 82.704 186.535, 78.909 230.596 C 75.283 272.699, 87.566 320.658, 110.387 353.500 C 116.802 362.731, 132.337 379.733, 142.510 388.654 C 156.305 400.753, 182.089 416.191, 190.835 417.590 L 195 418.256 195 413.588 C 195 405.414, 191.683 401.025, 174.500 386.457 C 162.271 376.090, 155.848 369.615, 153.784 365.574 C 149.526 357.233, 153.891 346.136, 162.597 343.170 C 169.655 340.765, 177.046 342.984, 184.589 349.771 C 185.646 350.722, 192.359 356.610, 199.506 362.855 C 206.653 369.100, 215.348 376.750, 218.828 379.855 C 229.905 389.736, 230.718 390.456, 233.392 392.750 C 234.835 393.988, 236.237 395, 236.508 395 C 236.778 395, 237 383.732, 237 369.960 C 237 340.676, 237.972 343.508, 223.751 331.343 C 218.938 327.226, 214.438 323.328, 213.750 322.679 C 213.062 322.031, 207.115 316.775, 200.533 311 C 193.951 305.225, 186.976 299.012, 185.033 297.193 C 183.090 295.374, 178.152 291.099, 174.060 287.693 C 161.116 276.917, 156.354 272.112, 154.462 267.915 C 152.852 264.346, 152.767 263.125, 153.782 258.167 C 154.707 253.650, 155.687 251.844, 158.617 249.268 C 165.718 243.023, 174.143 243.486, 183.330 250.627 C 186.724 253.264, 189.725 255.698, 190 256.035 C 190.676 256.863, 200.136 265.258, 207.991 272 C 217.414 280.088, 224.432 286.240, 225 286.910 C 226.757 288.982, 236.072 296, 237.065 296 C 237.925 296, 238.089 294.668, 237.636 291.360 C 237.286 288.809, 236.981 276.771, 236.958 264.610 L 236.916 242.500 217.384 225.500 C 206.641 216.150, 196.648 207.478, 195.176 206.230 C 185.670 198.165, 164.770 179.693, 160.408 175.500 C 154.244 169.575, 152.434 164.679, 154.113 158.468 C 156.945 147.996, 170.057 142.642, 179.128 148.255 C 182.091 150.088, 189.653 156.245, 195.402 161.505 C 196.006 162.058, 199.642 165.208, 203.482 168.505 C 207.322 171.802, 212.047 175.913, 213.982 177.641 C 224.405 186.946, 236.464 196.831, 236.993 196.504 C 237.326 196.299, 237.703 177.654, 237.831 155.072 C 238.046 117.401, 238.220 113.652, 239.947 109.623 C 242.664 103.285, 247.798 99.715, 254.937 99.198 C 262.105 98.680, 265.988 100.515, 269.754 106.202 L 272.500 110.348 273 152.592 C 273.275 175.826, 273.818 195.153, 274.207 195.541 C 274.935 196.268, 276.671 194.830, 293.584 179.500 C 299.045 174.550, 305.760 168.618, 308.506 166.317 C 332.177 146.491, 333.542 145.596, 339.994 145.693 C 346.146 145.786, 350.031 147.940, 353.509 153.185 C 357.255 158.836, 357.949 166.168, 355.156 170.608 C 354.081 172.318, 348.769 177.539, 343.351 182.212 C 337.933 186.884, 326.525 196.707, 318 204.040 C 309.475 211.374, 302.275 217.628, 302 217.937 C 301.725 218.247, 298.800 220.735, 295.500 223.466 C 292.200 226.197, 286.012 231.788, 281.750 235.889 L 274 243.347 274 270.745 L 274 298.144 294.250 279.802 C 331.731 245.854, 334.417 243.988, 343.956 245.267 C 355.726 246.846, 361.875 261.919, 354.626 271.424 C 352.447 274.281, 343.071 282.667, 331.062 292.500 C 326.685 296.084, 319.631 302.320, 312.996 308.471 C 309.419 311.787, 302.894 317.641, 298.496 321.480 C 294.098 325.319, 286.788 332.037, 282.250 336.408 L 274 344.355 274 369.677 C 274 383.605, 274.342 395, 274.760 395 C 276.109 395, 297.943 375.895, 319.972 355.438 C 333.775 342.622, 339.192 339.859, 346.378 341.972 C 351.251 343.406, 355.451 347.077, 358.092 352.210 C 362.447 360.677, 360.138 365.131, 344.102 379.196 C 318.165 401.947, 317 403.380, 317 412.530 L 317 418.159 320.250 417.498 C 330.283 415.456, 354.090 401.839, 368.133 390.108 C 400.955 362.692, 420.820 327.551, 430.657 279.500 C 432.131 272.300, 432.496 266, 432.479 248 C 432.459 227.474, 432.220 224.360, 429.755 212.500 C 422.100 175.673, 410.390 152.344, 386.372 126.073 C 355.272 92.056, 313.354 71.015, 268.650 66.983 C 257.514 65.978, 258.001 65.977, 243 67.060 M 395.832 243.529 C 391.186 246.052, 390.941 253.452, 395.379 257.161 C 399.689 260.763, 405.181 259.011, 407.017 253.449 C 408.602 248.646, 406.906 244.511, 402.756 243.065 C 399.009 241.759, 399.104 241.752, 395.832 243.529 M 106.111 245.382 C 101.295 250.508, 104.709 259, 111.585 259 C 116.102 259, 120.434 253.922, 119.577 249.634 C 118.678 245.140, 116.240 243, 112.019 243 C 109.445 243, 107.680 243.712, 106.111 245.382" stroke="none" fill="#404c65" fill-rule="evenodd"/><path d="M -0 239.002 L -0 478.004 243.250 477.752 L 486.500 477.500 486.752 238.750 L 487.004 0 243.502 0 L 0 0 -0 239.002 M 0.492 239.500 C 0.492 370.950, 0.608 424.576, 0.750 358.670 C 0.892 292.763, 0.892 185.213, 0.750 119.670 C 0.608 54.126, 0.492 108.050, 0.492 239.500 M 236 40.568 C 229.125 41.308, 221.700 42.366, 219.500 42.918 C 217.300 43.471, 213.925 44.210, 212 44.560 C 205.783 45.693, 186.499 51.894, 179 55.172 C 168.654 59.694, 155.875 66.595, 146.500 72.721 C 141 76.316, 136.275 79.537, 136 79.881 C 135.725 80.224, 132.814 82.529, 129.530 85.003 C 113.293 97.235, 90.013 123.598, 78.697 142.566 C 75.653 147.670, 67.988 163.303, 65.002 170.500 C 59.160 184.580, 54.848 203.139, 51.993 226.500 C 50.767 236.527, 50.765 262.383, 51.989 271 C 54.338 287.540, 55.023 291.740, 55.907 295 C 56.430 296.925, 57.637 301.650, 58.591 305.500 C 63.625 325.824, 77.438 354.963, 89.878 371.500 C 116.097 406.355, 147.654 431.355, 182 444.482 C 187.225 446.479, 192.499 448.522, 193.720 449.021 C 201.968 452.396, 223.831 456.694, 240.206 458.159 C 251.221 459.145, 257.116 459.142, 269.225 458.145 C 290.823 456.368, 303.133 453.752, 322.500 446.823 C 358.212 434.047, 388.662 412.743, 413.013 383.500 C 439.600 351.570, 455.379 312.881, 460.117 268 C 462.246 247.830, 459.795 216.689, 454.488 196.500 C 453.621 193.200, 452.546 189.117, 452.101 187.426 C 450.503 181.367, 442.639 161.359, 438.964 154 C 434.510 145.085, 422.877 127.238, 415.538 118.064 C 407.558 108.089, 389.128 90.375, 379.576 83.500 C 378.048 82.400, 374.793 79.998, 372.343 78.162 C 361.259 69.855, 335.358 56.017, 322.500 51.532 C 319.750 50.573, 316.600 49.394, 315.500 48.912 C 314.400 48.430, 311.700 47.605, 309.500 47.078 C 307.300 46.552, 303.475 45.630, 301 45.030 C 290.712 42.537, 286.753 41.927, 271.589 40.499 C 253.259 38.772, 252.674 38.773, 236 40.568 M 243 67.060 C 231.909 67.861, 218.822 70.126, 210.500 72.686 C 176.979 82.995, 158.055 93.774, 135.021 115.675 C 101.949 147.121, 82.704 186.535, 78.909 230.596 C 75.283 272.699, 87.566 320.658, 110.387 353.500 C 116.802 362.731, 132.337 379.733, 142.510 388.654 C 156.305 400.753, 182.089 416.191, 190.835 417.590 L 195 418.256 195 413.588 C 195 405.414, 191.683 401.025, 174.500 386.457 C 162.271 376.090, 155.848 369.615, 153.784 365.574 C 149.526 357.233, 153.891 346.136, 162.597 343.170 C 169.655 340.765, 177.046 342.984, 184.589 349.771 C 185.646 350.722, 192.359 356.610, 199.506 362.855 C 206.653 369.100, 215.348 376.750, 218.828 379.855 C 229.905 389.736, 230.718 390.456, 233.392 392.750 C 234.835 393.988, 236.237 395, 236.508 395 C 236.778 395, 237 383.732, 237 369.960 C 237 340.676, 237.972 343.508, 223.751 331.343 C 218.938 327.226, 214.438 323.328, 213.750 322.679 C 213.062 322.031, 207.115 316.775, 200.533 311 C 193.951 305.225, 186.976 299.012, 185.033 297.193 C 183.090 295.374, 178.152 291.099, 174.060 287.693 C 161.116 276.917, 156.354 272.112, 154.462 267.915 C 152.852 264.346, 152.767 263.125, 153.782 258.167 C 154.707 253.650, 155.687 251.844, 158.617 249.268 C 165.718 243.023, 174.143 243.486, 183.330 250.627 C 186.724 253.264, 189.725 255.698, 190 256.035 C 190.676 256.863, 200.136 265.258, 207.991 272 C 217.414 280.088, 224.432 286.240, 225 286.910 C 226.757 288.982, 236.072 296, 237.065 296 C 237.925 296, 238.089 294.668, 237.636 291.360 C 237.286 288.809, 236.981 276.771, 236.958 264.610 L 236.916 242.500 217.384 225.500 C 206.641 216.150, 196.648 207.478, 195.176 206.230 C 185.670 198.165, 164.770 179.693, 160.408 175.500 C 154.244 169.575, 152.434 164.679, 154.113 158.468 C 156.945 147.996, 170.057 142.642, 179.128 148.255 C 182.091 150.088, 189.653 156.245, 195.402 161.505 C 196.006 162.058, 199.642 165.208, 203.482 168.505 C 207.322 171.802, 212.047 175.913, 213.982 177.641 C 224.405 186.946, 236.464 196.831, 236.993 196.504 C 237.326 196.299, 237.703 177.654, 237.831 155.072 C 238.046 117.401, 238.220 113.652, 239.947 109.623 C 242.664 103.285, 247.798 99.715, 254.937 99.198 C 262.105 98.680, 265.988 100.515, 269.754 106.202 L 272.500 110.348 273 152.592 C 273.275 175.826, 273.818 195.153, 274.207 195.541 C 274.935 196.268, 276.671 194.830, 293.584 179.500 C 299.045 174.550, 305.760 168.618, 308.506 166.317 C 332.177 146.491, 333.542 145.596, 339.994 145.693 C 346.146 145.786, 350.031 147.940, 353.509 153.185 C 357.255 158.836, 357.949 166.168, 355.156 170.608 C 354.081 172.318, 348.769 177.539, 343.351 182.212 C 337.933 186.884, 326.525 196.707, 318 204.040 C 309.475 211.374, 302.275 217.628, 302 217.937 C 301.725 218.247, 298.800 220.735, 295.500 223.466 C 292.200 226.197, 286.012 231.788, 281.750 235.889 L 274 243.347 274 270.745 L 274 298.144 294.250 279.802 C 331.731 245.854, 334.417 243.988, 343.956 245.267 C 355.726 246.846, 361.875 261.919, 354.626 271.424 C 352.447 274.281, 343.071 282.667, 331.062 292.500 C 326.685 296.084, 319.631 302.320, 312.996 308.471 C 309.419 311.787, 302.894 317.641, 298.496 321.480 C 294.098 325.319, 286.788 332.037, 282.250 336.408 L 274 344.355 274 369.677 C 274 383.605, 274.342 395, 274.760 395 C 276.109 395, 297.943 375.895, 319.972 355.438 C 333.775 342.622, 339.192 339.859, 346.378 341.972 C 351.251 343.406, 355.451 347.077, 358.092 352.210 C 362.447 360.677, 360.138 365.131, 344.102 379.196 C 318.165 401.947, 317 403.380, 317 412.530 L 317 418.159 320.250 417.498 C 330.283 415.456, 354.090 401.839, 368.133 390.108 C 400.955 362.692, 420.820 327.551, 430.657 279.500 C 432.131 272.300, 432.496 266, 432.479 248 C 432.459 227.474, 432.220 224.360, 429.755 212.500 C 422.100 175.673, 410.390 152.344, 386.372 126.073 C 355.272 92.056, 313.354 71.015, 268.650 66.983 C 257.514 65.978, 258.001 65.977, 243 67.060 M 395.832 243.529 C 391.186 246.052, 390.941 253.452, 395.379 257.161 C 399.689 260.763, 405.181 259.011, 407.017 253.449 C 408.602 248.646, 406.906 244.511, 402.756 243.065 C 399.009 241.759, 399.104 241.752, 395.832 243.529 M 106.111 245.382 C 101.295 250.508, 104.709 259, 111.585 259 C 116.102 259, 120.434 253.922, 119.577 249.634 C 118.678 245.140, 116.240 243, 112.019 243 C 109.445 243, 107.680 243.712, 106.111 245.382" stroke="none" fill="#f6f6f9" fill-rule="evenodd"/></svg>